<svg xmlns="http://www.w3.org/2000/svg" xmlns:xlink="http://www.w3.org/1999/xlink" viewBox="0,0,256,256" width="100px" height="100px"><g fill-opacity="0" fill="#dddddd" fill-rule="nonzero" stroke="none" stroke-width="1" stroke-linecap="butt" stroke-linejoin="miter" stroke-miterlimit="10" stroke-dasharray="" stroke-dashoffset="0" font-family="none" font-weight="none" font-size="none" text-anchor="none" style="mix-blend-mode: normal"><path d="M0,256v-256h256v256z" id="bgRectangle"></path></g><g fill="#000000" fill-rule="nonzero" stroke="none" stroke-width="1" stroke-linecap="butt" stroke-linejoin="miter" stroke-miterlimit="10" stroke-dasharray="" stroke-dashoffset="0" font-family="none" font-weight="none" font-size="none" text-anchor="none" style="mix-blend-mode: normal"><g transform="scale(5.12,5.12)"><path d="M14,5c-4.95343,0 -9,4.04657 -9,9v22c0,4.95343 4.04657,9 9,9h22c4.95343,0 9,-4.04657 9,-9v-22c0,-4.95343 -4.04657,-9 -9,-9zM14,7h22c3.86857,0 7,3.13143 7,7v22c0,3.86857 -3.13143,7 -7,7h-22c-3.86857,0 -7,-3.13143 -7,-7v-22c0,-3.86857 3.13143,-7 7,-7zM14,14v1v21h22v-22zM16,16h18v18h-18zM20,18.01172v1.98828c0,2.74952 2.25048,5 5,5c2.74952,0 5,-2.25048 5,-5v-1.95703h-2v1.95703c0,1.66848 -1.33152,3 -3,3c-1.66848,0 -3,-1.33152 -3,-3v-1.98828zM29.90039,28.00391l-0.65234,1.31836l-1.45508,0.21094l1.05469,1.02734l-0.25,1.45117l1.30273,-0.68555l1.30273,0.68555l-0.25,-1.45117l1.05469,-1.02734l-1.45508,-0.21094z"></path></g></g></svg>